<?xml version="1.0" encoding="utf-8"?>
<!-- Generator: Adobe Illustrator 24.1.0, SVG Export Plug-In . SVG Version: 6.00 Build 0)  -->
<svg version="1.1" id="Layer_1" xmlns="http://www.w3.org/2000/svg" xmlns:xlink="http://www.w3.org/1999/xlink" x="0px" y="0px"
	 viewBox="0 0 1000 1000" style="enable-background:new 0 0 1000 1000;" xml:space="preserve">
<style type="text/css">
	.st0{fill:#FFFFFF;}
</style>
<g>
	<path d="M91.37,924.53c0-282.93,0-565.66,0-848.69c71.2,0,142.1,0,213.62,0c0,222.53,0,444.91,0,667.91c200.65,0,400.7,0,601.13,0
		c0,60.53,0,120.44,0,180.78C634.63,924.53,363.11,924.53,91.37,924.53z M184.36,367.22c2.27-1.92,3.42-2.98,4.66-3.92
		c11.92-9.07,23.88-18.1,35.77-27.22c1.23-0.94,2.89-2.32,2.97-3.57c0.33-5.41,0.14-10.86,0.14-16.16c-28.05,0-55.43,0-82.71,0
		c0,7.16,0,13.87,0,21.01c14.15,0,27.88,0,42.78,0c-2.26,1.85-3.57,3.01-4.96,4.06c-11.66,8.87-23.36,17.69-34.97,26.62
		c-1.34,1.03-3.01,2.63-3.11,4.07c-0.37,5.25-0.15,10.55-0.15,16.06c27.9,0,55.28,0,82.88,0c0-6.98,0-13.71,0-20.94
		C213.53,367.22,199.66,367.22,184.36,367.22z M227.93,217.42c0-2.52,0-4.68,0-6.83c0-13.2,0-13.2-12.45-17.34
		c-6.93-2.3-13.85-4.62-22.05-7.36c11.26-3.54,21.06-6.7,30.91-9.68c2.57-0.78,3.87-1.86,3.66-4.83c-0.29-4.14-0.33-8.34,0.01-12.48
		c0.27-3.36-1.21-4.57-4.15-5.49c-11.89-3.72-23.71-7.67-35.56-11.52c-8.02-2.6-16.04-5.18-24.87-8.02c0,5.19,0.18,9.65-0.06,14.09
		c-0.17,3.19,0.91,4.68,4.07,5.62c10.03,2.98,19.97,6.31,29.93,9.53c1.1,0.35,2.13,0.9,4.03,1.72
		c-11.98,3.72-22.89,7.24-33.89,10.45c-3.09,0.9-4.14,2.31-4.15,5.55c-0.06,13.62-0.17,13.62,12.85,17.63
		c0.16,0.05,0.32,0.08,0.48,0.13c7.94,2.6,15.88,5.21,24.99,8.2c-12.26,3.81-23.22,7.14-34.12,10.67c-1.51,0.49-3.81,1.85-3.88,2.93
		c-0.38,5.84-0.18,11.71-0.18,18.09C185.56,231.25,206.69,224.35,227.93,217.42z M227.69,433.41c-7.66,0-14.96-0.12-22.26,0.03
		c-7.81,0.16-15.71-0.1-23.4,1.02c-13.12,1.9-20.92,12-19.37,25.18c0.67,5.67,3.46,11.09,5.29,16.62c-0.76,0.09-2.48,0.29-4.1,0.48
		c0,6.61,0,12.84,0,19.2c21.49,0,42.56,0,63.85,0c0-6.88,0-13.46,0-19.95c-0.52-0.24-0.8-0.48-1.09-0.48
		c-9.66-0.05-19.32,0.04-28.98-0.17c-3.11-0.07-6.36-0.47-9.27-1.49c-4.69-1.65-7-6.16-6.52-11.19c0.51-5.35,4.27-7.2,8.79-8.03
		c1.94-0.36,3.98-0.21,5.98-0.21c10.28-0.02,20.57-0.01,31.09-0.01C227.69,447.34,227.69,440.74,227.69,433.41z M195.64,239.23
		c-19.63-0.02-33.06,13.2-33.22,32.72c-0.16,19.74,13.35,33.54,32.91,33.62c19.59,0.08,33.55-13.66,33.59-33.06
		C228.98,252.91,215.31,239.25,195.64,239.23z M227.67,557.62c-15.18,0-30.12-0.61-44.98,0.24c-8.21,0.47-14.63,5.79-17.55,13.77
		c-4.84,13.21-3.39,26.17,3.06,38.56c0.53,1.02,2.78,2.13,3.69,1.78c4.45-1.7,8.72-3.87,13.07-5.89
		c-8.15-16.19-6.2-27.81,4.27-27.76c0.57,7.45,0.59,14.97,1.83,22.29c1.57,9.32,8.38,14.64,17.39,14.81
		c9.58,0.18,17.08-5.07,19.39-14.03c2.36-9.15,1.65-17.78-6.37-24.91c2.44-0.17,4.22-0.3,6.2-0.44
		C227.67,569.61,227.67,563.37,227.67,557.62z M218.13,624.05c-4.18,3.71-8.14,7.21-12.07,10.69c8.52,12.27,6.72,24.03-4.64,27.5
		c0-14.06,0-27.94,0-41.65c-19.2-4.15-36.63,7.99-38.68,26.33c-2.56,22.88,14.21,39.02,37.89,36.47c12.62-1.36,22.87-10,26.62-22.43
		C231.52,646.76,228.01,632.01,218.13,624.05z M145.05,723.38c0,7.49,0,14.25,0,21.27c27.65,0,55.01,0,82.53,0
		c0-19.32,0-38.35,0-57.44c-6.28,0-12.21,0-18.82,0c0,12.12,0,23.97,0,36.17C187.17,723.38,166.26,723.38,145.05,723.38z
		 M227.7,523.25c-9.34,0-18.29,0.01-27.24,0c-13.75-0.01-18.03-4.32-17.74-17.79c0.01-0.26-0.25-0.53-0.29-0.63
		c-6.65,0-13.19,0-21.46,0c2.74,7.08,5.12,13.2,7.47,19.26c-1.14,0.13-2.87,0.32-4.55,0.51c0,6.57,0,12.77,0,19.01
		c21.5,0,42.54,0,63.82,0C227.7,536.87,227.7,530.44,227.7,523.25z"/>
	<path d="M509.23,643.64c-35.4,0-70.16,0-105.01,0c0-189.39,0-378.48,0-568.09c1.89,0,3.51,0,5.14,0c25.67,0,51.33,0.07,77-0.08
		c3.56-0.02,5.74,1.21,7.93,3.9C595.64,203.96,697.06,328.5,798.47,453.04c1.53,1.88,3.1,3.71,5.52,6.61c0-128.78,0-256.16,0-383.82
		c35.08,0,69.67,0,104.63,0c0,189.15,0,378.22,0,567.87c-1.45,0.08-3.04,0.23-4.63,0.23c-25.83,0.02-51.67-0.05-77.5,0.09
		c-3.37,0.02-5.43-1.13-7.51-3.69C716.89,514.83,614.73,389.39,512.57,263.95c-0.84-1.03-1.74-2.01-3.34-3.86
		C509.23,388.46,509.23,515.9,509.23,643.64z"/>
	<path class="st0" d="M184.36,367.22c15.3,0,29.17,0,43.31,0c0,7.23,0,13.96,0,20.94c-27.6,0-54.99,0-82.88,0
		c0-5.51-0.23-10.81,0.15-16.06c0.1-1.44,1.77-3.04,3.11-4.07c11.61-8.94,23.31-17.75,34.97-26.62c1.39-1.05,2.7-2.21,4.96-4.06
		c-14.9,0-28.62,0-42.78,0c0-7.13,0-13.85,0-21.01c27.29,0,54.66,0,82.71,0c0,5.3,0.19,10.75-0.14,16.16
		c-0.08,1.26-1.74,2.63-2.97,3.57c-11.89,9.12-23.85,18.15-35.77,27.22C187.77,364.24,186.63,365.3,184.36,367.22z"/>
	<path class="st0" d="M227.93,217.42c-21.24,6.94-42.37,13.83-64.45,21.04c0-6.38-0.2-12.25,0.18-18.09
		c0.07-1.08,2.37-2.44,3.88-2.93c10.9-3.53,21.86-6.86,34.12-10.67c-9.1-2.99-17.05-5.59-24.99-8.2c-0.16-0.05-0.32-0.08-0.48-0.13
		c-13.02-4-12.91-4-12.85-17.63c0.01-3.23,1.06-4.64,4.15-5.55c11-3.21,21.91-6.73,33.89-10.45c-1.9-0.82-2.93-1.36-4.03-1.72
		c-9.96-3.22-19.89-6.55-29.93-9.53c-3.15-0.94-4.24-2.43-4.07-5.62c0.24-4.44,0.06-8.89,0.06-14.09
		c8.83,2.85,16.85,5.42,24.87,8.02c11.85,3.85,23.67,7.8,35.56,11.52c2.94,0.92,4.42,2.12,4.15,5.49c-0.33,4.14-0.3,8.33-0.01,12.48
		c0.21,2.97-1.09,4.05-3.66,4.83c-9.85,2.98-19.65,6.14-30.91,9.68c8.21,2.74,15.13,5.06,22.05,7.36
		c12.45,4.14,12.45,4.14,12.45,17.34C227.93,212.74,227.93,214.89,227.93,217.42z"/>
	<path class="st0" d="M227.69,433.41c0,7.32,0,13.92,0,21c-10.52,0-20.8-0.01-31.09,0.01c-2,0-4.04-0.14-5.98,0.21
		c-4.52,0.83-8.28,2.69-8.79,8.03c-0.48,5.03,1.83,9.54,6.52,11.19c2.91,1.02,6.16,1.42,9.27,1.49c9.66,0.21,19.32,0.12,28.98,0.17
		c0.29,0,0.57,0.25,1.09,0.48c0,6.49,0,13.07,0,19.95c-21.29,0-42.35,0-63.85,0c0-6.37,0-12.59,0-19.2c1.62-0.19,3.34-0.39,4.1-0.48
		c-1.83-5.54-4.62-10.95-5.29-16.62c-1.55-13.18,6.25-23.28,19.37-25.18c7.69-1.12,15.59-0.86,23.4-1.02
		C212.73,433.3,220.03,433.41,227.69,433.41z"/>
	<path class="st0" d="M195.64,239.23c19.67,0.02,33.33,13.68,33.29,33.28c-0.05,19.4-14,33.14-33.59,33.06
		c-19.56-0.08-33.07-13.88-32.91-33.62C162.58,252.43,176.01,239.2,195.64,239.23z M194.87,284.86c2.65-0.4,4.49-0.51,6.23-0.98
		c6.19-1.66,9.75-6.05,9.65-11.68c-0.1-5.58-3.83-10.48-10-11.32c-4.28-0.58-8.97-0.17-13.14,1.02c-4.44,1.26-6.85,5.17-7.04,9.92
		c-0.19,4.92,1.98,8.81,6.46,10.87C189.69,283.9,192.71,284.29,194.87,284.86z"/>
	<path class="st0" d="M227.67,557.62c0,5.75,0,11.99,0,18.42c-1.98,0.14-3.76,0.27-6.2,0.44c8.02,7.13,8.73,15.76,6.37,24.91
		c-2.31,8.97-9.81,14.21-19.39,14.03c-9.01-0.17-15.81-5.49-17.39-14.81c-1.24-7.32-1.26-14.84-1.83-22.29
		c-10.47-0.05-12.43,11.57-4.27,27.76c-4.34,2.01-8.61,4.19-13.07,5.89c-0.91,0.35-3.16-0.77-3.69-1.78
		c-6.45-12.38-7.9-25.35-3.06-38.56c2.93-7.98,9.34-13.3,17.55-13.77C197.55,557.01,212.49,557.62,227.67,557.62z M202.04,577.83
		c0,4.23-0.3,8.18,0.09,12.06c0.33,3.3,2.57,5.41,6.07,5.3c3.42-0.1,5.33-2.14,5.98-5.51C215.57,582.45,210.65,577.35,202.04,577.83
		z"/>
	<path class="st0" d="M218.13,624.05c9.88,7.96,13.39,22.71,9.11,36.91c-3.74,12.43-14,21.07-26.62,22.43
		c-23.67,2.55-40.45-13.59-37.89-36.47c2.05-18.34,19.47-30.48,38.68-26.33c0,13.71,0,27.59,0,41.65
		c11.36-3.47,13.16-15.22,4.64-27.5C209.99,631.26,213.94,627.76,218.13,624.05z M189.12,639.8c-7.61,1.49-11.18,6.23-10.26,13.3
		c0.7,5.43,5.05,9.18,10.26,8.87C189.12,654.6,189.12,647.22,189.12,639.8z"/>
	<path class="st0" d="M145.05,723.38c21.21,0,42.12,0,63.71,0c0-12.2,0-24.05,0-36.17c6.61,0,12.54,0,18.82,0
		c0,19.09,0,38.13,0,57.44c-27.52,0-54.88,0-82.53,0C145.05,737.63,145.05,730.87,145.05,723.38z"/>
	<path class="st0" d="M227.7,523.25c0,7.19,0,13.61,0,20.36c-21.27,0-42.32,0-63.82,0c0-6.24,0-12.44,0-19.01
		c1.68-0.19,3.41-0.38,4.55-0.51c-2.35-6.06-4.72-12.18-7.47-19.26c8.28,0,14.81,0,21.46,0c0.04,0.09,0.3,0.36,0.29,0.63
		c-0.3,13.47,3.99,17.78,17.74,17.79C209.41,523.26,218.36,523.25,227.7,523.25z"/>
	<path d="M194.87,284.86c-2.16-0.57-5.18-0.96-7.83-2.17c-4.48-2.05-6.65-5.94-6.46-10.87c0.18-4.76,2.6-8.66,7.04-9.92
		c4.16-1.19,8.86-1.6,13.14-1.02c6.18,0.84,9.91,5.74,10,11.32c0.1,5.63-3.46,10.01-9.65,11.68
		C199.36,284.35,197.52,284.46,194.87,284.86z"/>
	<path d="M202.04,577.83c8.6-0.48,13.53,4.62,12.14,11.85c-0.65,3.36-2.56,5.4-5.98,5.51c-3.5,0.11-5.74-2-6.07-5.3
		C201.75,586.01,202.04,582.06,202.04,577.83z"/>
	<path d="M189.12,639.8c0,7.43,0,14.8,0,22.17c-5.22,0.32-9.56-3.44-10.27-8.87C177.94,646.03,181.5,641.29,189.12,639.8z"/>
</g>
</svg>
